<?xml version="1.0" encoding="UTF-8" standalone="no"?>
<svg width="100%" height="100%" viewBox="0 0 1004 1420" version="1.1" xmlns="http://www.w3.org/2000/svg" style="fill-rule:evenodd;clip-rule:evenodd;stroke-linejoin:round;stroke-miterlimit:2;">
    <g transform="matrix(1.655745,0,0,1.655745,328.557383,-4.868863)">
        <path d="M23.989,241.038C23.288,240.22 18.363,234.467 15.951,230.233C14.26,227.265 1.298,205.651 3.011,169.489C6.245,101.172 44.498,52.878 59.019,35.081C81.942,6.985 112.64,-3.044 132.557,6.391C161.973,20.326 154.035,99.552 138.926,128.726C135.965,134.443 134.599,137.603 131.507,137.411C127.638,137.17 131.294,130.477 132.084,128.359C144.562,94.902 143.883,34.297 130.651,17.388C123.539,8.3 117.586,7.437 108.458,10.376C103.555,11.955 83.85,18.301 60.89,53.765C-1.539,150.192 18.241,226.026 46.218,244.908C49.497,247.122 55.221,253.679 70.38,238.38C81.332,227.327 88.575,209.753 88.671,205.503C88.726,203.088 89.096,186.818 92.769,175.589C96.173,165.181 98.75,163.169 102.539,162.884C111.222,162.229 110.412,167.415 110.14,170.466C109.51,177.509 104.442,196.611 102.624,202.536C99.845,211.591 103.325,231.112 108.207,238.676C110.216,241.788 112.454,246.132 115.05,242.175C129.856,219.602 127.221,190.644 134.387,166.466C148.196,119.87 175.176,126.274 184.219,135.771C196.638,148.814 195.26,176.845 192.787,193.544C174.096,319.744 38.398,521.64 39.056,706.503C39.308,777.399 60.278,815.622 72.297,829.667C83.72,843.016 110.995,870.766 147.295,837.28C201.505,787.272 202.992,680.831 175.852,624.336C170.19,612.549 168.05,608.995 166.444,609.371C166.03,609.468 144.916,626.653 123.473,624.785C91.093,621.965 90.707,582.254 119.601,574.899C148.566,567.526 166.619,591.484 167.487,591.573C169.116,591.74 168.845,588.666 168.855,588.551C169.199,584.694 177.055,584.594 179.111,587.731C182.759,593.298 175.55,600.395 175.852,601.504C176.258,602.996 217.109,647.398 204.088,750.444C198.37,795.699 166.198,866.751 104.542,860.129C69.496,856.364 46.936,826.024 36.707,797.422C-9.608,667.914 74.719,471.524 108.081,388.335C158.513,262.587 169.406,235.074 177.339,180.478C179.932,162.633 177.589,139.813 168.381,134.732C164.787,132.749 155.755,142.201 151.949,148.773C134.419,179.05 142.08,214.358 128.334,241.419C119.274,259.254 102.783,249.737 98.931,245.105C90.637,235.131 92.279,228.74 89.775,232.693C73.215,258.837 45.424,263.21 23.989,241.038L155.009,592.976C149.283,587.626 137.338,576.074 125.708,580.946C112.445,586.502 112.046,608.342 124.78,616.019C131.297,619.947 158.581,602.599 160.202,600.254C160.728,599.494 160.557,599.231 155.009,592.976L23.989,241.038Z" style="fill:#000;"/>
    </g>
</svg>
